<?xml version="1.0" encoding="UTF-8" standalone="no"?>
<svg
   width="64.35mm"
   height="62.8mm"
   viewBox="0 0 182.42 178.03"
   version="1.1"
   id="svg44"
   sodipodi:docname="martinLutherLogo.svg"
   inkscape:version="1.2.2 (b0a8486541, 2022-12-01)"
   inkscape:export-filename="martinLutherLogo.png"
   inkscape:export-xdpi="34.378983"
   inkscape:export-ydpi="34.378983"
   xmlns:inkscape="http://www.inkscape.org/namespaces/inkscape"
   xmlns:sodipodi="http://sodipodi.sourceforge.net/DTD/sodipodi-0.dtd"
   xmlns="http://www.w3.org/2000/svg"
   xmlns:svg="http://www.w3.org/2000/svg">
  <sodipodi:namedview
     id="namedview46"
     pagecolor="#505050"
     bordercolor="#ffffff"
     borderopacity="1"
     inkscape:showpageshadow="0"
     inkscape:pageopacity="0"
     inkscape:pagecheckerboard="1"
     inkscape:deskcolor="#505050"
     inkscape:document-units="mm"
     showgrid="false"
     inkscape:zoom="0.70307208"
     inkscape:cx="-10.66747"
     inkscape:cy="105.25237"
     inkscape:window-width="1680"
     inkscape:window-height="981"
     inkscape:window-x="0"
     inkscape:window-y="0"
     inkscape:window-maximized="1"
     inkscape:current-layer="svg44" />
  <defs
     id="defs16">
    <rect
       x="294.0607"
       y="50.71123"
       width="395.00779"
       height="51.265172"
       id="rect355" />
    <style
       id="style2">
      .cls-1 {
        fill: none;
      }

      .cls-2 {
        fill: #57507e;
      }

      .cls-3 {
        clip-path: url(#clip-path);
      }

      .cls-4 {
        fill: #f9c200;
      }

      .cls-5 {
        clip-path: url(#clip-path-2);
      }

      .cls-6 {
        clip-path: url(#clip-path-3);
      }

      .cls-7 {
        clip-path: url(#clip-path-4);
      }
    </style>
    <clipPath
       id="clip-path"
       transform="translate(4.39)">
      <polyline
         class="cls-1"
         points="140.41 178.03 93.31 165.41 93.28 91.67 163.53 91.74 140.41 178.03"
         id="polyline4" />
    </clipPath>
    <clipPath
       id="clip-path-2"
       transform="translate(4.39)">
      <polygon
         class="cls-1"
         points="84.51 163.05 0 140.41 13.08 91.6 84.84 91.66 84.51 163.05"
         id="polygon7" />
    </clipPath>
    <clipPath
       id="clip-path-3"
       transform="translate(4.39)">
      <polygon
         class="cls-1"
         points="165.53 84.26 93.28 84.19 93.24 14.9 178.03 37.62 165.53 84.26"
         id="polygon10" />
    </clipPath>
    <clipPath
       id="clip-path-4"
       transform="translate(4.39)">
      <polygon
         class="cls-1"
         points="84.8 12.64 37.62 0 15.09 84.12 84.84 84.18 84.8 12.64"
         id="polygon13" />
    </clipPath>
  </defs>
  <g
     id="Ebene_2"
     data-name="Ebene 2">
    <g
       id="Ebene_1-2"
       data-name="Ebene 1">
      <polyline
         class="cls-2"
         points="144.8 178.03 97.7 165.41 97.67 91.67 167.92 91.74 144.8 178.03"
         id="polyline18" />
      <g
         class="cls-3"
         clip-path="url(#clip-path)"
         id="g22">
        <path
           class="cls-4"
           d="M115.18,133.85l2.33-.77a13.31,13.31,0,0,1-2.39-7l-11-4.31,11.21,2.25a6.62,6.62,0,0,1,.77-2.07,11.38,11.38,0,0,1,3.81-4.66c-1.35-2.19-5.73-8.63-10.11-7.71-4.21.89-4,3-5.06,6.16a6.63,6.63,0,0,1-4.49,4.49,6.58,6.58,0,0,1,1,6.24c-1,3.14-2.4,4.76.48,8C105.32,138.46,115.18,133.85,115.18,133.85Zm16.44,6.6V128.26h5.09v-3.79h-5.09v-4.25h-3.78v4.25H123v3.79h4.89v12.19ZM128.92,118,130,104l1.13,14c1.37-1,4.23-2.75,7.61-1.51,1.48-1.71,6.68-8.17,4.37-12.18-2.15-3.73-4.14-2.88-7.42-2.92A6.6,6.6,0,0,1,130,98.55a6.55,6.55,0,0,1-5.64,2.87c-3.28,0-5.27-.81-7.41,2.92-2.34,4.07,3.05,10.67,4.43,12.26A8.33,8.33,0,0,1,128.92,118Zm.27,27a49.15,49.15,0,0,1-5.57-4.51l-9.29,10.8,7.7-12.53a31.84,31.84,0,0,1-3.59-4.22l-2.7.73s-10.68,2.07-11.25,7.4c-.45,4.28,1.66,4.76,4.29,6.72a6.61,6.61,0,0,1,2.89,5.66,6.56,6.56,0,0,1,6.25,1c2.68,1.9,3.78,3.76,7.71,2,4.9-2.19,3.57-13,3.57-13Zm15.23-9.73-2.71-.73a30.45,30.45,0,0,1-3.58,4.22l7.7,12.54-9.29-10.81A48.26,48.26,0,0,1,131,145v0s-1.33,10.81,3.57,13c3.93,1.75,5-.11,7.72-2a6.54,6.54,0,0,1,6.25-1,6.6,6.6,0,0,1,2.89-5.65c2.63-2,4.74-2.44,4.28-6.72C155.1,137.3,144.42,135.23,144.42,135.23Zm14.49-8.71a6.55,6.55,0,0,1,1-6.24,6.67,6.67,0,0,1-4.49-4.5c-1-3.11-.85-5.26-5.06-6.15-4.38-.93-8.76,5.52-10.11,7.7a11.42,11.42,0,0,1,3.81,4.67,6.78,6.78,0,0,1,.77,2.07L156,121.81l-11,4.31a13.16,13.16,0,0,1-2.39,7l2.33.76s9.87,4.61,13.46.62C161.31,131.28,159.89,129.65,158.91,126.52Z"
           transform="translate(4.39)"
           id="path20" />
      </g>
      <path
         class="cls-2"
         d="M84.51,163.05,0,140.41,13.08,91.6l71.76.06Z"
         transform="translate(4.39)"
         id="path24" />
      <g
         class="cls-5"
         clip-path="url(#clip-path-2)"
         id="g28">
        <path
           class="cls-4"
           d="M49.88,124.18c7.19,0,11.76,8.5,23.43,9.8l-1-24.17C60.64,108.5,57.07,100,49.88,100c-6.1,0-9.37,1.52-12.69,6.46v24.17C40.5,125.7,43.78,124.18,49.88,124.18Zm25.6-15.73-1.85.09,1.26,26.89-33.66,0c-1.07,2-2.62,3.33-5,3.33s-3.83-1.33-4.9-3.27H-2.45l1.27-26.9L-3,108.46-4.39,137.3H30.25a7.08,7.08,0,0,0,6,3.27,7.23,7.23,0,0,0,6.09-3.32l34.53.05Zm-.67,27,.08,0v0Zm-39.54-4.81V106.47c-3.33-4.94-6.6-6.46-12.7-6.46-7.18,0-10.75,8.49-22.43,9.8L-.87,134c11.67-1.3,16.24-9.8,23.43-9.8C28.66,124.18,31.94,125.7,35.27,130.64Z"
           transform="translate(4.39)"
           id="path26" />
      </g>
      <polygon
         class="cls-2"
         points="169.92 84.26 97.66 84.19 97.62 14.9 182.42 37.62 169.92 84.26"
         id="polygon30" />
      <g
         class="cls-6"
         clip-path="url(#clip-path-3)"
         id="g34">
        <path
           class="cls-4"
           d="M102.56,71.29h9.28V64.71h-5.3V61.14h5.3V55.91h4v5.23h5.25v3.57h-5.25v6.58h9.28V51.61l-22.58,0ZM170,46.49c-.18-9-5.84-16.12-13.53-16.12a11.5,11.5,0,0,0-8.88,3.84,9.48,9.48,0,0,0-2.49,6.4,7,7,0,0,0,.07,1.12,5,5,0,0,1,0,9.66,7,7,0,0,0-.07,1.12,9.44,9.44,0,0,0,2.49,6.39,11.47,11.47,0,0,0,8.88,3.84c7.71,0,13.39-7.2,13.53-16.18h0v-.07ZM156.51,57.21c-2.51,0-4.58-.77-5.86-3.2a3.92,3.92,0,0,1-.34-1.5,2.5,2.5,0,0,1,2.5-2.49h.31l0-3.51,0-3.52-.31,0a2.5,2.5,0,0,1-2.5-2.49h0a4,4,0,0,1,.34-1.5c1.28-2.42,3.35-3.19,5.86-3.2,5.15,0,8.4,4.75,8.49,10.7C164.91,52.47,161.66,57.21,156.51,57.21Zm-59-10.67A3.53,3.53,0,0,0,101,50.05h0V43A3.54,3.54,0,0,0,97.47,46.54Zm49.83,0A3.54,3.54,0,0,0,143.8,43H102.57v7.06H144a3.52,3.52,0,0,0,3.33-3.52Z"
           transform="translate(4.39)"
           id="path32" />
      </g>
      <polygon
         class="cls-2"
         points="89.19 12.64 42.01 0 19.47 84.12 89.22 84.18 89.19 12.64"
         id="polygon36" />
      <g
         class="cls-7"
         clip-path="url(#clip-path-4)"
         id="g40">
        <path
           class="cls-4"
           d="M54.38,51.58l-5,10.63L38.31,55.76a59.38,59.38,0,0,1,6,16.31H64.5a59.54,59.54,0,0,1,6-16.31L59.34,62.21ZM44.92,76.64c6.33,0,12.6,0,18.93,0,.1-1.16.14-1.91.33-3H44.53C44.72,74.73,44.82,75.48,44.92,76.64Zm6.49-29.57a3,3,0,1,0,3-3,3,3,0,0,0-3,3ZM53,33,41.89,39.44l-5-10.63L32,39.44,20.86,33a59.76,59.76,0,0,1,6,16.31H47.05A59.55,59.55,0,0,1,53,33ZM36.92,27.26a3,3,0,1,0-3-3h0a3,3,0,0,0,2.95,3Zm9.81,23.57H27.07a30.43,30.43,0,0,1,.4,3c6.32,0,12.6,0,18.93,0A30.38,30.38,0,0,1,46.73,50.83Zm25-23.57a3,3,0,1,0-2.95-3h0a3,3,0,0,0,2.95,3ZM62.27,53.87c6.32,0,12.6,0,18.92,0,.1-1.16.15-1.91.34-3H61.87C62.06,52,62.17,52.71,62.27,53.87ZM76.69,39.44l-5-10.63-5,10.63L55.66,33a59.92,59.92,0,0,1,6,16.31H81.84a59.77,59.77,0,0,1,6-16.3Z"
           transform="translate(4.39)"
           id="path38" />
      </g>
    </g>
  </g>
  <text
     xml:space="preserve"
     style="font-style:normal;font-weight:normal;font-size:24.0019px;line-height:1.25;font-family:sans-serif;fill:#000000;fill-opacity:1;stroke:none;stroke-width:0.75006"
     x="-14.840418"
     y="42.389618"
     id="text260"><tspan
       sodipodi:role="line"
       id="tspan258"
       style="font-size:24.0019px;text-align:end;text-anchor:end;fill:#000000;stroke-width:0.75006"
       x="-14.840424"
       y="42.389618">Evangelisch-Lutherisches</tspan><tspan
       sodipodi:role="line"
       style="font-style:normal;font-variant:normal;font-weight:bold;font-stretch:normal;font-size:24.0019px;font-family:sans-serif;-inkscape-font-specification:'sans-serif Bold';text-align:end;text-anchor:end;fill:#000000;stroke-width:0.75006"
       x="-14.840424"
       y="72.392021"
       id="tspan312">Kirchspiel Dresden-Neustadt</tspan></text>
  <text
     xml:space="preserve"
     transform="matrix(0.75006007,0,0,0.75006007,-0.00202385,0)"
     id="text353"
     style="font-style:normal;font-weight:normal;font-size:40px;line-height:1.25;font-family:sans-serif;white-space:pre;shape-inside:url(#rect355);display:inline;fill:#000000;fill-opacity:1;stroke:none" />
  <text
     xml:space="preserve"
     style="font-style:normal;font-weight:normal;font-size:24.0019px;line-height:1.35;font-family:sans-serif;fill:#000000;fill-opacity:1;stroke:none;stroke-width:0.75006"
     x="203.76097"
     y="44.086121"
     id="text361"><tspan
       sodipodi:role="line"
       style="font-size:24.0019px;fill:#000000;stroke-width:0.75006"
       x="203.76097"
       y="44.086121"
       id="tspan443">Dreikönig </tspan><tspan
       sodipodi:role="line"
       style="font-size:24.0019px;fill:#000000;stroke-width:0.75006"
       x="203.76097"
       y="76.488693"
       id="tspan363">St. Petri </tspan><tspan
       sodipodi:role="line"
       style="font-size:24.0019px;fill:#000000;stroke-width:0.75006"
       x="203.76097"
       y="108.89126"
       id="tspan365">Martin-Luther </tspan><tspan
       sodipodi:role="line"
       style="font-size:24.0019px;fill:#000000;stroke-width:0.75006"
       x="203.76097"
       y="141.29382"
       id="tspan367">St. Pauli</tspan></text>
</svg>
